<?xml version="1.0" encoding="UTF-8" standalone="no"?>
<!-- Generator: Adobe Illustrator 16.0.0, SVG Export Plug-In . SVG Version: 6.00 Build 0)  -->

<svg
   xmlns:dc="http://purl.org/dc/elements/1.1/"
   xmlns:cc="http://creativecommons.org/ns#"
   xmlns:rdf="http://www.w3.org/1999/02/22-rdf-syntax-ns#"
   xmlns:svg="http://www.w3.org/2000/svg"
   xmlns="http://www.w3.org/2000/svg"
   xmlns:sodipodi="http://sodipodi.sourceforge.net/DTD/sodipodi-0.dtd"
   xmlns:inkscape="http://www.inkscape.org/namespaces/inkscape"
   version="1.1"
   id="Layer_1"
   x="0px"
   y="0px"
   width="56px"
   height="68px"
   viewBox="0 0 56 68"
   enable-background="new 0 0 56 68"
   xml:space="preserve"
   inkscape:version="0.91 r13725"
   sodipodi:docname="Icon.svg"><metadata
     id="metadata15"><rdf:RDF><cc:Work
         rdf:about=""><dc:format>image/svg+xml</dc:format><dc:type
           rdf:resource="http://purl.org/dc/dcmitype/StillImage" /></cc:Work></rdf:RDF></metadata><defs
     id="defs13" /><sodipodi:namedview
     pagecolor="#ffffff"
     bordercolor="#666666"
     borderopacity="1"
     objecttolerance="10"
     gridtolerance="10"
     guidetolerance="10"
     inkscape:pageopacity="0"
     inkscape:pageshadow="2"
     inkscape:window-width="1366"
     inkscape:window-height="705"
     id="namedview11"
     showgrid="false"
     inkscape:zoom="1.7352941"
     inkscape:cx="-82.919796"
     inkscape:cy="39.126671"
     inkscape:window-x="111"
     inkscape:window-y="892"
     inkscape:window-maximized="1"
     inkscape:current-layer="Layer_1" /><g
     id="_x23_282c2fff" /><g
     id="_x23_929495ff"><path
       d="M14.054,15.045c6.48,0.29,12.98-0.14,19.441,0.399c5.328,0.521,8.277,5.791,9.299,10.531   c-3.76-0.611-7.021-2.541-10.299-4.311c-4.4-0.77-8.9-0.15-13.342-0.28c-0.119,1.04-0.229,2.07-0.33,3.11   c-1.6,0.17-3.189,0.34-4.779,0.5C14.063,21.675,14.054,18.364,14.054,15.045z"
       id="path5"
       fill="#929394" /><path
       d="M37.034,24.965c1.84,1.11,3.699,2.2,5.578,3.261c-1.117,1.869-2.209,3.75-3.26,5.649   c1.041,1.79,2.23,3.569,2.602,5.659c-0.9,1.851-3.141,2.351-4.779,3.361c-1.541-4.65-6.09-6.631-10.352-8.091   c-0.01,1.95-0.01,3.9-0.01,5.851c-4.59-2.95-9.18-5.92-13.609-9.101c2.971,0.729,5.949,1.46,8.92,2.261   c-0.012-1.721-0.012-3.44-0.012-5.15c3.432,0.92,6.893,2.21,10.49,2.09C35.134,29.944,35.765,26.985,37.034,24.965z"
       id="path7"
       fill="#929394" /><path
       d="M28.524,46.675c5.299,0.439,9.049-4.3,14.271-4.66c-1.031,4.711-3.961,9.93-9.262,10.48   c-6.461,0.59-12.979,0.15-19.461,0.46c0-3.351-0.01-6.69-0.01-10.03c1.58,0.18,3.17,0.38,4.771,0.59   c0.068,0.76,0.221,2.301,0.301,3.07C22.265,46.595,25.384,46.694,28.524,46.675z"
       id="path9"
       fill="#929394" /></g><g
     transform="translate(62.186941,0.28813563)"
     id="_x23_929495ff-4"
     style="fill:#000000"><path
       style="fill:#000000"
       inkscape:connector-curvature="0"
       d="m 14.054,15.045 c 6.48,0.29 12.98,-0.14 19.441,0.399 5.328,0.521 8.277,5.791 9.299,10.531 -3.76,-0.611 -7.021,-2.541 -10.299,-4.311 -4.4,-0.77 -8.9,-0.15 -13.342,-0.28 -0.119,1.04 -0.229,2.07 -0.33,3.11 -1.6,0.17 -3.189,0.34 -4.779,0.5 0.019,-3.319 0.01,-6.63 0.01,-9.949 z"
       id="path5-3" /><path
       style="fill:#000000"
       inkscape:connector-curvature="0"
       d="m 37.034,24.965 c 1.84,1.11 3.699,2.2 5.578,3.261 -1.117,1.869 -2.209,3.75 -3.26,5.649 1.041,1.79 2.23,3.569 2.602,5.659 -0.9,1.851 -3.141,2.351 -4.779,3.361 -1.541,-4.65 -6.09,-6.631 -10.352,-8.091 -0.01,1.95 -0.01,3.9 -0.01,5.851 -4.59,-2.95 -9.18,-5.92 -13.609,-9.101 2.971,0.729 5.949,1.46 8.92,2.261 -0.012,-1.721 -0.012,-3.44 -0.012,-5.15 3.432,0.92 6.893,2.21 10.49,2.09 2.532,-0.811 3.163,-3.77 4.432,-5.79 z"
       id="path7-2" /><path
       style="fill:#000000"
       inkscape:connector-curvature="0"
       d="m 28.524,46.675 c 5.299,0.439 9.049,-4.3 14.271,-4.66 -1.031,4.711 -3.961,9.93 -9.262,10.48 -6.461,0.59 -12.979,0.15 -19.461,0.46 0,-3.351 -0.01,-6.69 -0.01,-10.03 1.58,0.18 3.17,0.38 4.771,0.59 0.068,0.76 0.221,2.301 0.301,3.07 3.131,0.01 6.25,0.109 9.39,0.09 z"
       id="path9-4" /></g><g
     transform="translate(-49.033398,-10.516949)"
     id="_x23_929495ff-48"
     style="fill:#00bcd4;fill-opacity:1"
     inkscape:export-filename="C:\Users\HP\Documents\GitHub\burst-team.github.io\img\icon.png"
     inkscape:export-xdpi="423.892"
     inkscape:export-ydpi="423.892"><path
       style="fill:#00bcd4;fill-opacity:1"
       inkscape:connector-curvature="0"
       d="m 14.054,15.045 c 6.48,0.29 12.98,-0.14 19.441,0.399 5.328,0.521 8.277,5.791 9.299,10.531 -3.76,-0.611 -7.021,-2.541 -10.299,-4.311 -4.4,-0.77 -8.9,-0.15 -13.342,-0.28 -0.119,1.04 -0.229,2.07 -0.33,3.11 -1.6,0.17 -3.189,0.34 -4.779,0.5 0.019,-3.319 0.01,-6.63 0.01,-9.949 z"
       id="path5-8" /><path
       style="fill:#00bcd4;fill-opacity:1"
       inkscape:connector-curvature="0"
       d="m 37.034,24.965 c 1.84,1.11 3.699,2.2 5.578,3.261 -1.117,1.869 -2.209,3.75 -3.26,5.649 1.041,1.79 2.23,3.569 2.602,5.659 -0.9,1.851 -3.141,2.351 -4.779,3.361 -1.541,-4.65 -6.09,-6.631 -10.352,-8.091 -0.01,1.95 -0.01,3.9 -0.01,5.851 -4.59,-2.95 -9.18,-5.92 -13.609,-9.101 2.971,0.729 5.949,1.46 8.92,2.261 -0.012,-1.721 -0.012,-3.44 -0.012,-5.15 3.432,0.92 6.893,2.21 10.49,2.09 2.532,-0.811 3.163,-3.77 4.432,-5.79 z"
       id="path7-22" /><path
       style="fill:#00bcd4;fill-opacity:1"
       inkscape:connector-curvature="0"
       d="m 28.524,46.675 c 5.299,0.439 9.049,-4.3 14.271,-4.66 -1.031,4.711 -3.961,9.93 -9.262,10.48 -6.461,0.59 -12.979,0.15 -19.461,0.46 0,-3.351 -0.01,-6.69 -0.01,-10.03 1.58,0.18 3.17,0.38 4.771,0.59 0.068,0.76 0.221,2.301 0.301,3.07 3.131,0.01 6.25,0.109 9.39,0.09 z"
       id="path9-0" /></g></svg>