<?xml version="1.0" encoding="utf-8"?>
<!-- Generator: Adobe Illustrator 16.0.0, SVG Export Plug-In . SVG Version: 6.00 Build 0)  -->
<!DOCTYPE svg PUBLIC "-//W3C//DTD SVG 1.1//EN" "http://www.w3.org/Graphics/SVG/1.1/DTD/svg11.dtd">
<svg version="1.1" id="Layer_1" xmlns="http://www.w3.org/2000/svg" xmlns:xlink="http://www.w3.org/1999/xlink" x="0px" y="0px"
	 width="116px" height="56px" viewBox="415.5 170.5 116 56" enable-background="new 415.5 170.5 116 56" xml:space="preserve">
<g id="_x23_282c2fff">
</g>
<g id="_x23_929495ff">
	<path fill="#929495" stroke="#929495" stroke-width="0.0938" d="M428.52,181.54c6.48,0.29,12.98-0.14,19.44,0.4
		c5.329,0.52,8.279,5.79,9.3,10.53c-3.76-0.61-7.021-2.54-10.3-4.31c-4.4-0.77-8.9-0.15-13.341-0.28
		c-0.119,1.04-0.229,2.07-0.33,3.11c-1.6,0.17-3.189,0.34-4.779,0.5C428.53,188.17,428.52,184.86,428.52,181.54z"/>
	<path fill="#929495" stroke="#929495" stroke-width="0.0938" d="M461.789,205.97c1.41-6.72,2.131-13.59,3.771-20.25
		c0.66-0.12,1.99-0.35,2.65-0.47c-1.21,7.95-2.931,15.83-4.061,23.79c-0.76,4.51,6.42,4.37,7.2,0.56
		c1.93-7.85,2.52-16.01,4.53-23.83c0.659-0.15,1.979-0.43,2.64-0.57c-1.06,6.94-2.43,13.83-3.53,20.76
		c-0.489,2.52-0.79,5.42-2.91,7.17c-2.52,2.37-7.119,3.11-9.6,0.33C460.52,211.43,461.48,208.43,461.789,205.97z"/>
	<path fill="#929495" stroke="#929495" stroke-width="0.0938" d="M482.47,185.46c3.66,0.28,8.96-1.16,11.04,2.87
		c1.149,4.19-0.181,8.96-3,12.24c2.399,4.45,0.479,9.61-0.601,14.17c-0.67,0.13-2.02,0.39-2.689,0.52
		c0.569-3.74,1.63-7.42,1.7-11.22c-1.011-2.7-4.33-1.85-6.561-2.14c-0.89,4.26-1.2,8.65-2.45,12.83
		c-0.659,0.14-1.989,0.4-2.649,0.53C478.94,205.32,480.74,195.4,482.47,185.46 M484.78,188.17c-0.66,3.82-1.37,7.63-1.97,11.46
		c2.29-0.36,5.49,0.44,6.85-2.01c1.11-2.57,1.841-5.63,1.061-8.37C489.26,187.57,486.72,188.47,484.78,188.17z"/>
	<path fill="#929495" stroke="#929495" stroke-width="0.0938" d="M498.39,189.44c2.08-3.78,8.13-5.57,11.229-2.03
		c1.86,2.01,0.801,4.9,0.7,7.33c-0.66,0.01-1.99,0.03-2.66,0.04c0.061-2.21,1.051-5.77-1.989-6.44c-5.07-0.99-6.87,5.8-5.74,9.51
		c2.21,2.12,6.49,1.16,8.109,4.21c1.53,5.46-1.51,13.32-8.1,13.2c-4.63,0.29-6.81-5.13-4.88-8.84c0.63-0.16,1.89-0.48,2.52-0.64
		c0.091,1.95-0.989,4.44,0.69,5.99c2.08,1.63,5.49,0.39,6.32-2.03c0.62-2.03,0.939-4.14,1.39-6.21c-2.979-2.01-8.29-1.16-9.22-5.46
		C496.659,195.13,497.09,192.09,498.39,189.44z"/>
	<path fill="#929495" stroke="#929495" stroke-width="0.0938" d="M514.48,185.49c4.33,0,8.67-0.03,13.01,0.05
		c-0.12,3.37-3.35,2.74-5.71,2.77c-1.76,8.78-2.83,17.72-4.88,26.43c-0.66,0.13-1.979,0.39-2.64,0.52
		c1.52-9.02,3.16-18.01,4.74-27.02c-1.7-0.01-3.381-0.01-5.061-0.02C514.07,187.54,514.35,186.17,514.48,185.49z"/>
	<path fill="#929495" stroke="#929495" stroke-width="0.0938" d="M451.5,191.46c1.84,1.11,3.699,2.2,5.579,3.26
		c-1.119,1.87-2.21,3.75-3.26,5.65c1.04,1.79,2.23,3.57,2.601,5.66c-0.9,1.85-3.141,2.35-4.78,3.36
		c-1.54-4.65-6.09-6.63-10.351-8.09c-0.01,1.95-0.01,3.9-0.01,5.85c-4.59-2.95-9.18-5.92-13.609-9.1c2.97,0.73,5.949,1.46,8.92,2.26
		c-0.011-1.72-0.011-3.44-0.011-5.15c3.431,0.92,6.891,2.21,10.49,2.09C449.6,196.44,450.23,193.48,451.5,191.46z"/>
	<path fill="#929495" stroke="#929495" stroke-width="0.0938" d="M442.99,213.17c5.3,0.44,9.05-4.3,14.271-4.66
		c-1.03,4.71-3.96,9.93-9.26,10.48c-6.461,0.59-12.98,0.15-19.461,0.46c0-3.35-0.01-6.69-0.01-10.03c1.58,0.18,3.17,0.38,4.771,0.59
		c0.069,0.76,0.22,2.3,0.3,3.07C436.73,213.09,439.85,213.19,442.99,213.17z"/>
</g>
</svg>
